<svg xmlns="http://www.w3.org/2000/svg" viewBox="0 0 128 128">
  <rect width="128" height="128" rx="28" fill="#071018"/>
  <g fill="none" stroke="#9BD9FF" stroke-width="2.2" stroke-linecap="round">
    <path d="M22 50h11"/>
    <path d="M22 78h11"/>
  </g>
  <path d="M38 40c18 10 28 16 52 24-24 8-34 14-52 24 10-16 12-20 12-24 0-4-2-8-12-24z" fill="#2EA6E8"/>
  <path d="M38 40c18 10 28 16 52 24H50C46 56 44 50 38 40z" fill="#B7E6FF"/>
  <path d="M50 52c10 5 18 9 32 12" stroke="#E8F6FF" stroke-width="1" opacity=".35"/>
  <circle cx="96" cy="64" r="2.4" fill="#D8F0FF"/>
</svg>
